<svg xmlns="http://www.w3.org/2000/svg" viewBox="0 0 4677.83 1040.29"><defs><style>.cls-1{fill:#231f20;}</style></defs><title>Artboard 5</title><g id="Layer_1" data-name="Layer 1"><path d="M1677,520c0,127.2-72.08,233.5-199.27,233.5S1278.48,647.19,1278.48,520s72.08-233.18,199.27-233.18c4.24,0,8.48.3,12.72.6v60c84.19,7.88,123,93.28,123,172.62,0,83.59-42.4,173.53-135.67,173.53S1342.08,603.58,1342.08,520c0-66.32,27-136.58,84.79-162.62v28.77c-42.7,26.65-59.35,86.31-59.35,133.85,0,63.6,29.37,148.09,110.23,148.09S1588,583.59,1588,520s-29.68-147.78-110.23-147.78a83.27,83.27,0,0,0-12.72.91V312.55c-111.14,7.57-161.11,107.81-161.11,207.44,0,103.58,53.9,208.06,173.83,208.06S1651.58,623.57,1651.58,520c0-87.22-38.46-175.34-122.95-200.48V293.17C1624,317.7,1677,411,1677,520Z"/><path d="M2094.61,437.32c0,55.12-23.93,99.63-66.32,123.56l-14.84-20.29c38.15-22.41,55.72-57.84,55.72-103.27,0-73-54.21-118.41-137.19-118.41H1800.85V721.69H1839V501.22h26.35l162,220.47h44.82L1908.66,501.22h24.84c56,0,72.07-30,72.07-63.9,0-38.16-27-58.45-69-58.45h-72.08v87.82H1839V353.43h97.52c57.54,0,94.48,33,94.48,83.89,0,48.15-27,80.55-73.29,87.22l165,222.59H2014.35l-149.9-204.42V747.13h-89V293.47H1932C2036.46,293.47,2094.61,356.76,2094.61,437.32Z"/><path d="M2528,611.45c0,75.11-57.24,135.68-149.6,135.68H2200.58V525.75h171.71c56.63,0,92.06,35.43,92.06,82.07,0,41.18-26.65,79.34-84.79,79.34H2264.17V585.71h25.44v76h89.95c42.39,0,59.35-25.13,59.35-53.9,0-29.68-20.89-56.63-66.62-56.63H2226v170.5h152.33c80.55,0,124.16-51.49,124.16-110.24,0-56.63-27.56-89.94-68.74-107.51,19.68-15.44,44.51-40.27,44.51-91.76,0-47.54-42.39-93.27-115.08-93.27H2226V466.09H2362.9c35.43,0,53-17,53-48.46,0-25.74-23.63-38.76-57.54-38.76h-68.75v52.7h-25.44V353.43h94.19c61.17,0,83,33.92,83,64.2,0,47.25-30,73.9-80.86,73.9h-159.9V293.47H2363.2c87.83,0,140.52,58.15,140.52,118.71,0,31.2-8.78,62.69-28.16,86.62C2508.87,523.33,2528,560.57,2528,611.45Z"/><path d="M2662.39,378.87V721.69h38.15V413.39H2726V747.13h-89V353.43h63.59V318.91H2637V293.47h89v85.4Z"/><path d="M3216,293.47,3053.34,747.13h-16.66L2885,318.91h-40l153.84,428.22h-27L2809,293.47h93.88l142.33,401.26,134.77-375.82h-40l-94.79,267.41-13.32-38.46,90.25-254.39Z"/><path d="M3324.36,378.87V721.69h38.16V413.39H3388V747.13h-89V353.43h63.6V318.91h-63.6V293.47h89v85.4Z"/><path d="M3861.58,293.47V571.18c0,104.17-54.51,182.31-172.31,182.31-4.24,0-8.48,0-12.72-.31V692.92c-40-2.43-96.31-25.75-96.31-121.74V318.91h-38.16V571.18c0,54.81,16.66,126.89,96.31,150.51V748c-82.68-20.59-121.74-88.73-121.74-176.85V293.47h89V571.18c0,64.2,27,96.9,83.59,96.9,4.54,0,8.48-.3,12.72-.6v60.26c116.29-6.66,134.15-101.15,134.15-156.56V318.91H3798V571.18c0,67.53-27.56,98.72-57.85,112.35V654.46c21.81-15.45,32.41-43,32.41-83.28V293.47Z"/><path d="M4426.65,293.47V747.13h-89V469.72l-97.21,169H4211l152-264.38V721.69h38.16V318.91h-50l-182.62,319.5-96.91-168.69V747.13h-89V293.47h90.24l110.84,194.12L4168.94,513,4058.09,318.91h-50V721.69h38.15V374.33l122.35,212.9,167.78-293.76Z"/><path class="cls-1" d="M1034.41,381.2l-2.47.9c-2.92,1-5.79,2.24-8.68,3.35Q1008.59,391,994.14,397a471.46,471.46,0,0,1,15.49,121.22c0,174.25-90.69,350-292.46,350-122.54,0-204.11-64.84-249.26-154.8q-9.21,6.81-18.43,13.66-8.22,6.12-16.42,12.27c54.61,103.07,151.57,171.67,284.11,171.67,214,0,335.26-178.83,335.26-392.83C1052.43,470.2,1046.32,424,1034.41,381.2Zm-57.89-35.89q6.68-1.74,13.36-3.44,9.5-2.28,19-4.41c3.32-.78,6.65-1.5,10-2.19-39.54-98.12-113.15-172.2-216.1-198.67v44.33C887,206,944,268.23,976.52,345.31ZM717.17,810.17c156.93,0,228.26-151.32,228.26-291.95a405.15,405.15,0,0,0-11.2-95q-20,9.24-39.7,19a364.8,364.8,0,0,1,8.1,76c0,107-49.42,249.15-185.46,249.15-82.86,0-133.59-52.74-160.58-118.15q-8.16,5.78-16.31,11.59l-15.2,10.9-4.26,3.06C555.76,752.25,620.08,810.17,717.17,810.17ZM424.72,518.22c0-167.62,84.06-336.27,271-349v101.9a140.89,140.89,0,0,1,21.4-1.53c78.72,0,128.57,47.79,156.52,108.83l4.58-1.71,9.14-3.39c3-1.13,6.07-2.29,9.15-3.34l17.64-6.06c-32.23-72.35-90-128.09-175.63-136.11V126.92c-7.13-.51-14.26-1-21.4-1-214,0-335.25,178.33-335.25,392.32,0,56.77,8.53,111.07,25.07,160.22l1-.9q16.83-15.76,34.11-31.06C430.39,605.48,424.72,561.8,424.72,518.22ZM631.58,293v-48.4c-97.32,43.82-142.67,162-142.67,273.6A412.26,412.26,0,0,0,497.05,600q18.93-15.3,38.37-30a367.57,367.57,0,0,1-3.71-51.72C531.71,438.23,559.74,337.86,631.58,293Z"/><path class="cls-1" d="M201.58,913.72c7.52-10.3,15.46-20.24,23.47-30.14q6-7.4,12.17-14.72t12.39-14.52c4.14-4.84,8.36-9.6,12.59-14.36s8.46-9.51,12.74-14.22l12.95-14c4.32-4.67,8.67-9.33,13.08-13.92q52.62-55.42,109.86-106.34C487,623.56,568.61,561.39,655.53,507.12c10.84-6.81,21.83-13.39,32.81-20,11.08-6.43,22.11-12.94,33.34-19.15,5.6-3.12,11.18-6.27,16.84-9.27s11.28-6.11,17-9.09c11.41-5.87,22.77-11.83,34.34-17.4l8.63-4.24c2.89-1.4,5.81-2.74,8.7-4.12,5.81-2.72,11.62-5.46,17.47-8.1l17.6-7.82c2.92-1.32,5.88-2.56,8.84-3.81l8.87-3.75,8.87-3.75,9-3.54,9-3.53c3-1.17,6-2.37,9-3.46l18.06-6.71c6-2.21,12.12-4.26,18.19-6.35,24.36-8.16,48.9-15.81,73.83-22,6.19-1.68,12.45-3.12,18.7-4.6s12.49-2.95,18.8-4.17l18.85-3.83c6.32-1.14,12.65-2.19,19-3.28l4.74-.8c1.58-.26,3.17-.47,4.76-.7l9.52-1.36,9.51-1.34c3.17-.42,6.37-.71,9.55-1.07l9.55-1c3.18-.32,6.34-.74,9.54-.95l19.14-1.4a656.74,656.74,0,0,1,76.46-.13l0,1c-25.23,3-50.21,6.73-75,11.4s-49.17,10.56-73.37,17a1177.86,1177.86,0,0,0-141.76,48.8l-8.64,3.61c-2.88,1.2-5.78,2.34-8.63,3.62l-17.17,7.49c-2.86,1.23-5.69,2.56-8.53,3.86l-8.51,3.92-8.5,3.91-8.46,4-8.46,4c-2.81,1.34-5.64,2.67-8.42,4.08l-16.77,8.35c-5.58,2.8-11.09,5.76-16.65,8.59-2.78,1.43-5.56,2.83-8.32,4.29l-8.26,4.42-8.27,4.42-4.13,2.2L792,477.61l-16.41,9.05c-10.85,6.2-21.78,12.26-32.52,18.66q-32.38,18.9-64.06,39.06c-42.3,26.77-83.67,55.06-124.48,84.23s-80.85,59.52-120.41,90.6L419.28,730.9l-14.76,11.76q-14.76,11.77-29.37,23.75l-14.64,12-14.57,12L331.4,802.53c-4.82,4.06-9.69,8.08-14.48,12.18Q259,863.57,202.33,914.39Z"/></g></svg>